<?xml version="1.0" encoding="utf-8"?>
<!-- Generator: Adobe Illustrator 15.0.0, SVG Export Plug-In . SVG Version: 6.00 Build 0)  -->
<!DOCTYPE svg PUBLIC "-//W3C//DTD SVG 1.1//EN" "http://www.w3.org/Graphics/SVG/1.1/DTD/svg11.dtd">
<svg version="1.1" id="レイヤー_1" xmlns="http://www.w3.org/2000/svg" xmlns:xlink="http://www.w3.org/1999/xlink" x="0px"
	 y="0px" width="22.033px" height="22.033px" viewBox="0 0 22.033 22.033" enable-background="new 0 0 22.033 22.033"
	 xml:space="preserve">
<g>
	<path fill="#FFFFFF" d="M15.953,0H6.08C2.728,0,0,2.728,0,6.079v9.874c0,3.353,2.728,6.08,6.08,6.08h9.873
		c3.353,0,6.08-2.728,6.08-6.08V6.079C22.033,2.728,19.305,0,15.953,0z M20.078,15.953c0,2.274-1.85,4.125-4.125,4.125H6.08
		c-2.274,0-4.125-1.851-4.125-4.125V6.079c0-2.274,1.851-4.123,4.125-4.123h9.873c2.274,0,4.125,1.849,4.125,4.123V15.953
		L20.078,15.953z"/>
	<path fill="#FFFFFF" d="M11.016,5.34c-3.13,0-5.677,2.547-5.677,5.677s2.547,5.677,5.677,5.677c3.131,0,5.678-2.547,5.678-5.677
		S14.147,5.34,11.016,5.34z M11.016,14.739c-2.052,0-3.722-1.67-3.722-3.723c0-2.052,1.67-3.723,3.722-3.723
		c2.053,0,3.723,1.671,3.723,3.723C14.739,13.069,13.069,14.739,11.016,14.739z"/>
	<path fill="#FFFFFF" d="M16.931,3.682c-0.376,0-0.746,0.153-1.012,0.42c-0.268,0.266-0.422,0.637-0.422,1.014
		c0,0.376,0.154,0.746,0.422,1.014c0.266,0.266,0.636,0.42,1.012,0.42c0.379,0,0.748-0.154,1.016-0.42
		c0.266-0.268,0.418-0.638,0.418-1.014c0-0.377-0.152-0.748-0.418-1.014C17.68,3.835,17.31,3.682,16.931,3.682z"/>
</g>
</svg>
