<?xml version="1.0" encoding="utf-8"?>
<!-- Generator: Adobe Illustrator 15.0.0, SVG Export Plug-In . SVG Version: 6.00 Build 0)  -->
<!DOCTYPE svg PUBLIC "-//W3C//DTD SVG 1.1//EN" "http://www.w3.org/Graphics/SVG/1.1/DTD/svg11.dtd">
<svg version="1.1" id="レイヤー_1" xmlns="http://www.w3.org/2000/svg" xmlns:xlink="http://www.w3.org/1999/xlink" x="0px"
	 y="0px" width="11.844px" height="21.911px" viewBox="0 0 11.844 21.911" enable-background="new 0 0 11.844 21.911"
	 xml:space="preserve">
<g>
	<path fill="#FFFFFF" d="M11.401,0.005L8.559,0C5.364,0,3.303,2.117,3.303,5.394v2.485H0.446C0.199,7.879,0,8.079,0,8.326v3.602
		c0,0.247,0.199,0.448,0.446,0.448h2.856v9.089c0,0.246,0.201,0.446,0.447,0.446h3.727c0.249,0,0.448-0.2,0.448-0.446v-9.089h3.34
		c0.248,0,0.447-0.201,0.447-0.448l0.002-3.602c0-0.118-0.047-0.232-0.133-0.316c-0.084-0.084-0.195-0.131-0.316-0.131h-3.34V5.771
		c0-1.014,0.238-1.527,1.561-1.527h1.912c0.248,0,0.447-0.201,0.447-0.447V0.451C11.844,0.206,11.645,0.006,11.401,0.005z"/>
</g>
</svg>
