<?xml version="1.0" encoding="utf-8"?>
<!-- Generator: Adobe Illustrator 24.0.0, SVG Export Plug-In . SVG Version: 6.00 Build 0)  -->
<svg version="1.1" id="Layer_1" xmlns="http://www.w3.org/2000/svg" xmlns:xlink="http://www.w3.org/1999/xlink" x="0px" y="0px"
	 viewBox="0 0 1000 1000" style="enable-background:new 0 0 1000 1000;" xml:space="preserve">
<style type="text/css">
	.st0{fill:#FFFFFF;}
</style>
<g>
	<path class="st0" d="M267.6,708.3C-70.3,362.3,8.5,150.9,44.1,106.5l244.1,243.7c-34.8,34.8-1.1,84.3,37,131.3
		c54.3,67.2,117,126.9,171.3,171.1c82.2,67,125.1,96.6,158.3,63.3l238.1,238C853.4,995,623.8,1073.1,267.6,708.3L267.6,708.3z
		 M979,868.7L979,868.7c0,0.2-67.4,67.4-67.4,67.4L672.8,697.6l67.3-67.4c14.6-14.5,38.1-14.8,52.8-0.1
		c0.1,0.1,185.9,185.3,185.9,185.3v0.2C992.9,829.8,994.4,853.3,979,868.7L979,868.7z M374,264.4v0.1c0,0.1-67.4,67.3-67.4,67.3
		L62.7,88L130,20.6c14.6-14.5,38.1-14.8,52.8-0.1C182.9,20.6,374,211.2,374,211.2v0.3C388,225.4,389.5,248.9,374,264.4L374,264.4z"
		/>
</g>
</svg>
