<?xml version="1.0" encoding="utf-8"?>
<!-- Generator: Adobe Illustrator 15.0.0, SVG Export Plug-In . SVG Version: 6.00 Build 0)  -->
<!DOCTYPE svg PUBLIC "-//W3C//DTD SVG 1.1//EN" "http://www.w3.org/Graphics/SVG/1.1/DTD/svg11.dtd">
<svg version="1.1" id="レイヤー_1" xmlns="http://www.w3.org/2000/svg" xmlns:xlink="http://www.w3.org/1999/xlink" x="0px"
	 y="0px" width="324.945px" height="132.591px" viewBox="0 0 324.945 132.591" enable-background="new 0 0 324.945 132.591"
	 xml:space="preserve">
<polygon fill="#FFFFFF" points="307.677,56.615 307.677,29.081 324.068,29.081 324.068,33.002 311.862,33.002 311.862,41.14 
	322.525,41.14 322.525,45.023 311.862,45.023 311.862,52.731 324.473,52.731 324.473,56.615 "/>
<polygon fill="none" stroke="#FFFFFF" stroke-width="0.943" stroke-miterlimit="10" points="307.677,56.615 307.677,29.081 
	324.068,29.081 324.068,33.002 311.862,33.002 311.862,41.14 322.525,41.14 322.525,45.023 311.862,45.023 311.862,52.731 
	324.473,52.731 324.473,56.615 "/>
<path fill="#FFFFFF" d="M122.479,56.814V29.28h10.332c2.291,0,4.109,0.655,5.452,1.966c1.342,1.31,2.015,3.087,2.015,5.33
	c0,1.224-0.268,2.341-0.801,3.35c-0.536,1.009-1.387,1.754-2.554,2.236c0.975,0.233,1.838,0.713,2.586,1.439
	c0.747,0.726,1.3,1.537,1.658,2.432c0.358,0.894,0.538,1.795,0.538,2.702c0,2.264-0.734,4.176-2.203,5.738
	c-1.469,1.561-3.43,2.341-5.884,2.341H122.479z M126.665,40.637h6.067c1.056,0,1.881-0.376,2.474-1.128
	c0.593-0.752,0.889-1.677,0.889-2.776c0-1.124-0.326-2-0.976-2.628c-0.651-0.628-1.543-0.942-2.677-0.942h-5.777V40.637z
	 M126.665,52.931h6.858c1.21,0,2.179-0.423,2.907-1.269c0.727-0.845,1.091-1.834,1.091-2.966c0-1.119-0.379-2.143-1.139-3.073
	c-0.761-0.93-1.752-1.395-2.976-1.395h-6.741V52.931z"/>
<path fill="none" stroke="#FFFFFF" stroke-width="0.943" stroke-miterlimit="10" d="M122.479,56.814V29.28h10.332
	c2.291,0,4.109,0.655,5.452,1.966c1.342,1.31,2.015,3.087,2.015,5.33c0,1.224-0.268,2.341-0.801,3.35
	c-0.536,1.009-1.387,1.754-2.554,2.236c0.975,0.233,1.838,0.713,2.586,1.439c0.747,0.726,1.3,1.537,1.658,2.432
	c0.358,0.894,0.538,1.795,0.538,2.702c0,2.264-0.734,4.176-2.203,5.738c-1.469,1.561-3.43,2.341-5.884,2.341H122.479z
	 M126.665,40.637h6.067c1.056,0,1.881-0.376,2.474-1.128c0.593-0.752,0.889-1.677,0.889-2.776c0-1.124-0.326-2-0.976-2.628
	c-0.651-0.628-1.543-0.942-2.677-0.942h-5.777V40.637z M126.665,52.931h6.858c1.21,0,2.179-0.423,2.907-1.269
	c0.727-0.845,1.091-1.834,1.091-2.966c0-1.119-0.379-2.143-1.139-3.073c-0.761-0.93-1.752-1.395-2.976-1.395h-6.741V52.931z"/>
<path fill="#FFFFFF" d="M150.884,56.814l10.276-27.534h4.532l10.277,27.534h-4.437l-2.602-6.927H157.96l-2.603,6.927H150.884z
	 M159.387,46.141h8.118l-4.05-11.552L159.387,46.141z"/>
<path fill="none" stroke="#FFFFFF" stroke-width="0.943" stroke-miterlimit="10" d="M150.884,56.814l10.276-27.534h4.532
	l10.277,27.534h-4.437l-2.602-6.927H157.96l-2.603,6.927H150.884z M159.387,46.141h8.118l-4.05-11.552L159.387,46.141z"/>
<polygon fill="#FFFFFF" points="185.65,56.709 185.65,29.175 189.834,29.175 189.834,52.826 200.748,52.826 200.748,56.709 "/>
<polygon fill="none" stroke="#FFFFFF" stroke-width="0.943" stroke-miterlimit="10" points="185.65,56.709 185.65,29.175 
	189.834,29.175 189.834,52.826 200.748,52.826 200.748,56.709 "/>
<path fill="#FFFFFF" d="M208.503,56.64l10.278-27.534h4.531l10.278,27.534h-4.437l-2.602-6.927h-10.973l-2.603,6.927H208.503z
	 M217.007,45.966h8.119l-4.05-11.552L217.007,45.966z"/>
<path fill="none" stroke="#FFFFFF" stroke-width="0.943" stroke-miterlimit="10" d="M208.503,56.64l10.278-27.534h4.531
	l10.278,27.534h-4.437l-2.602-6.927h-10.973l-2.603,6.927H208.503z M217.007,45.966h8.119l-4.05-11.552L217.007,45.966z"/>
<polygon fill="#FFFFFF" points="242.752,56.455 242.752,28.92 246.783,28.92 258.352,48.455 258.352,28.92 262.537,28.92 
	262.537,56.455 258.641,56.455 246.937,36.746 246.937,56.455 "/>
<polygon fill="none" stroke="#FFFFFF" stroke-width="0.943" stroke-miterlimit="10" points="242.752,56.455 242.752,28.92 
	246.783,28.92 258.352,48.455 258.352,28.92 262.537,28.92 262.537,56.455 258.641,56.455 246.937,36.746 246.937,56.455 "/>
<path fill="#FFFFFF" d="M122.224,106.147V78.613h10.586c1.89,0,3.613,0.355,5.168,1.066c1.556,0.711,2.845,1.688,3.867,2.935
	c1.021,1.245,1.812,2.712,2.372,4.401c0.559,1.688,0.838,3.51,0.838,5.463c0,1.952-0.279,3.76-0.838,5.42
	c-0.56,1.661-1.354,3.103-2.382,4.329c-1.029,1.225-2.317,2.185-3.866,2.88c-1.549,0.693-3.269,1.04-5.159,1.04H122.224z
	 M126.409,102.264h6.401c1.724,0,3.202-0.439,4.435-1.319c1.235-0.879,2.147-2.044,2.739-3.495c0.591-1.454,0.887-3.11,0.887-4.972
	c0-1.862-0.296-3.529-0.887-5.001c-0.592-1.472-1.504-2.653-2.739-3.545c-1.233-0.894-2.711-1.338-4.435-1.338h-6.401V102.264z"/>
<path fill="none" stroke="#FFFFFF" stroke-width="0.943" stroke-miterlimit="10" d="M122.224,106.147V78.613h10.586
	c1.89,0,3.613,0.355,5.168,1.066c1.556,0.711,2.845,1.688,3.867,2.935c1.021,1.245,1.812,2.712,2.372,4.401
	c0.559,1.688,0.838,3.51,0.838,5.463c0,1.952-0.279,3.76-0.838,5.42c-0.56,1.661-1.354,3.103-2.382,4.329
	c-1.029,1.225-2.317,2.185-3.866,2.88c-1.549,0.693-3.269,1.04-5.159,1.04H122.224z M126.409,102.264h6.401
	c1.724,0,3.202-0.439,4.435-1.319c1.235-0.879,2.147-2.044,2.739-3.495c0.591-1.454,0.887-3.11,0.887-4.972
	c0-1.862-0.296-3.529-0.887-5.001c-0.592-1.472-1.504-2.653-2.739-3.545c-1.233-0.894-2.711-1.338-4.435-1.338h-6.401V102.264z"/>
<polygon fill="#FFFFFF" points="155.397,105.809 155.397,78.275 171.787,78.275 171.787,82.197 159.581,82.197 159.581,90.333 
	170.245,90.333 170.245,94.217 159.581,94.217 159.581,101.926 172.192,101.926 172.192,105.809 "/>
<polygon fill="none" stroke="#FFFFFF" stroke-width="0.943" stroke-miterlimit="10" points="155.397,105.809 155.397,78.275 
	171.787,78.275 171.787,82.197 159.581,82.197 159.581,90.333 170.245,90.333 170.245,94.217 159.581,94.217 159.581,101.926 
	172.192,101.926 172.192,105.809 "/>
<path fill="#FFFFFF" d="M182.09,97.502h4.186c0.038,1.18,0.562,2.226,1.571,3.138c1.009,0.914,2.291,1.37,3.847,1.37
	c1.517,0,2.716-0.357,3.596-1.071c0.881-0.715,1.392-1.61,1.532-2.69c0.143-2.261-1.291-3.747-4.297-4.462l-3.432-0.918
	c-4.501-1.228-6.752-3.679-6.752-7.352c0-1.535,0.415-2.906,1.244-4.116c0.829-1.208,1.926-2.135,3.288-2.777
	c1.362-0.645,2.841-0.967,4.435-0.967c2.558,0,4.669,0.739,6.334,2.215c1.664,1.478,2.498,3.451,2.498,5.923h-4.186
	c0-1.249-0.44-2.254-1.319-3.016c-0.882-0.761-2.024-1.14-3.424-1.14c-1.285,0-2.389,0.347-3.308,1.045
	c-0.919,0.697-1.378,1.583-1.378,2.661c0,1.722,1.224,2.889,3.669,3.497l3.47,0.926c2.687,0.736,4.641,1.852,5.861,3.344
	c1.222,1.494,1.715,3.268,1.485,5.32c-0.193,2.199-1.142,3.991-2.845,5.38s-3.86,2.082-6.473,2.082c-1.825,0-3.48-0.391-4.966-1.171
	c-1.484-0.781-2.628-1.809-3.432-3.083C182.493,100.364,182.09,98.985,182.09,97.502"/>
<path fill="none" stroke="#FFFFFF" stroke-width="0.943" stroke-miterlimit="10" d="M182.09,97.502h4.186
	c0.038,1.18,0.562,2.226,1.571,3.138c1.009,0.914,2.291,1.37,3.847,1.37c1.517,0,2.716-0.357,3.596-1.071
	c0.881-0.715,1.392-1.61,1.532-2.69c0.143-2.261-1.291-3.747-4.297-4.462l-3.432-0.918c-4.501-1.228-6.752-3.679-6.752-7.352
	c0-1.535,0.415-2.906,1.244-4.116c0.829-1.208,1.926-2.135,3.288-2.777c1.362-0.645,2.841-0.967,4.435-0.967
	c2.558,0,4.669,0.739,6.334,2.215c1.664,1.478,2.498,3.451,2.498,5.923h-4.186c0-1.249-0.44-2.254-1.319-3.016
	c-0.882-0.761-2.024-1.14-3.424-1.14c-1.285,0-2.389,0.347-3.308,1.045c-0.919,0.697-1.378,1.583-1.378,2.661
	c0,1.722,1.224,2.889,3.669,3.497l3.47,0.926c2.687,0.736,4.641,1.852,5.861,3.344c1.222,1.494,1.715,3.268,1.485,5.32
	c-0.193,2.199-1.142,3.991-2.845,5.38s-3.86,2.082-6.473,2.082c-1.825,0-3.48-0.391-4.966-1.171
	c-1.484-0.781-2.628-1.809-3.432-3.083C182.493,100.364,182.09,98.985,182.09,97.502z"/>
<rect x="212.047" y="78.363" fill="#FFFFFF" width="4.184" height="27.533"/>
<rect x="212.047" y="78.363" fill="none" stroke="#FFFFFF" stroke-width="0.943" stroke-miterlimit="10" width="4.184" height="27.533"/>
<path fill="#FFFFFF" d="M225.847,91.806c0-2.575,0.605-4.946,1.821-7.112c1.215-2.167,2.88-3.881,4.994-5.144
	c2.115-1.263,4.438-1.893,6.972-1.893c1.851,0,3.592,0.341,5.225,1.025c1.633,0.682,3.053,1.642,4.261,2.876l-3.085,2.762
	c-1.813-1.737-3.945-2.604-6.4-2.604c-1.774,0-3.397,0.454-4.869,1.359c-1.473,0.907-2.629,2.132-3.471,3.673
	c-0.843,1.543-1.264,3.233-1.264,5.069c0,1.837,0.421,3.527,1.264,5.072c0.842,1.544,1.998,2.768,3.471,3.67
	c1.472,0.901,3.095,1.353,4.869,1.353c2.249,0,4.15-0.62,5.706-1.857c1.557-1.238,2.379-2.863,2.469-4.874h-7.616v-3.668h12.437
	c0,2.419-0.312,4.549-0.935,6.39c-0.624,1.84-1.511,3.34-2.661,4.498s-2.513,2.029-4.088,2.615
	c-1.575,0.585-3.345,0.878-5.312,0.878c-1.903,0-3.706-0.371-5.409-1.112c-1.704-0.743-3.166-1.744-4.388-3.005
	c-1.221-1.262-2.19-2.761-2.911-4.498S225.847,93.719,225.847,91.806"/>
<path fill="none" stroke="#FFFFFF" stroke-width="0.943" stroke-miterlimit="10" d="M225.847,91.806
	c0-2.575,0.605-4.946,1.821-7.112c1.215-2.167,2.88-3.881,4.994-5.144c2.115-1.263,4.438-1.893,6.972-1.893
	c1.851,0,3.592,0.341,5.225,1.025c1.633,0.682,3.053,1.642,4.261,2.876l-3.085,2.762c-1.813-1.737-3.945-2.604-6.4-2.604
	c-1.774,0-3.397,0.454-4.869,1.359c-1.473,0.907-2.629,2.132-3.471,3.673c-0.843,1.543-1.264,3.233-1.264,5.069
	c0,1.837,0.421,3.527,1.264,5.072c0.842,1.544,1.998,2.768,3.471,3.67c1.472,0.901,3.095,1.353,4.869,1.353
	c2.249,0,4.15-0.62,5.706-1.857c1.557-1.238,2.379-2.863,2.469-4.874h-7.616v-3.668h12.437c0,2.419-0.312,4.549-0.935,6.39
	c-0.624,1.84-1.511,3.34-2.661,4.498s-2.513,2.029-4.088,2.615c-1.575,0.585-3.345,0.878-5.312,0.878
	c-1.903,0-3.706-0.371-5.409-1.112c-1.704-0.743-3.166-1.744-4.388-3.005c-1.221-1.262-2.19-2.761-2.911-4.498
	S225.847,93.719,225.847,91.806z"/>
<polygon fill="#FFFFFF" points="262.78,105.722 262.78,78.188 266.81,78.188 278.379,97.721 278.379,78.188 282.564,78.188 
	282.564,105.722 278.668,105.722 266.964,86.013 266.964,105.722 "/>
<polygon fill="none" stroke="#FFFFFF" stroke-width="0.943" stroke-miterlimit="10" points="262.78,105.722 262.78,78.188 
	266.81,78.188 278.379,97.721 278.379,78.188 282.564,78.188 282.564,105.722 278.668,105.722 266.964,86.013 266.964,105.722 "/>
<path fill="#FFFFFF" d="M75.124,46.209c0,15.772-12.787,28.559-28.56,28.559c-15.772,0-28.559-12.787-28.559-28.559
	c0-15.773,12.787-28.56,28.559-28.56V0C21.043,0,0.354,20.688,0.354,46.209c0,25.52,20.689,46.208,46.209,46.208
	c25.521,0,46.209-20.688,46.209-46.208H75.124z"/>
<rect y="114.576" fill="#FFFFFF" width="92.794" height="18.016"/>
<path fill="#FFFFFF" d="M272.225,42.544c0-2.607,0.614-5.007,1.844-7.199c1.229-2.193,2.912-3.927,5.046-5.205
	c2.133-1.277,4.476-1.915,7.026-1.915c2.159,0,4.163,0.441,6.011,1.323c1.847,0.882,3.389,2.107,4.625,3.673l-3.28,2.608
	c-0.935-1.08-2.035-1.932-3.296-2.558c-1.263-0.625-2.617-0.938-4.06-0.938c-2.721,0-5.014,0.994-6.881,2.982
	c-1.866,1.989-2.801,4.398-2.801,7.229c0,1.857,0.423,3.562,1.27,5.116c0.846,1.553,2.01,2.781,3.493,3.683
	c1.482,0.902,3.122,1.353,4.919,1.353c1.495,0,2.891-0.326,4.186-0.978c1.294-0.651,2.377-1.544,3.25-2.676l3.278,2.627
	c-1.223,1.607-2.765,2.864-4.625,3.772c-1.861,0.909-3.891,1.363-6.089,1.363c-2.551,0-4.894-0.635-7.026-1.906
	c-2.134-1.271-3.816-2.999-5.046-5.185C272.839,47.528,272.225,45.138,272.225,42.544"/>
<path fill="none" stroke="#FFFFFF" stroke-width="0.955" stroke-miterlimit="10" d="M272.225,42.544
	c0-2.607,0.614-5.007,1.844-7.199c1.229-2.193,2.912-3.927,5.046-5.205c2.133-1.277,4.476-1.915,7.026-1.915
	c2.159,0,4.163,0.441,6.011,1.323c1.847,0.882,3.389,2.107,4.625,3.673l-3.28,2.608c-0.935-1.08-2.035-1.932-3.296-2.558
	c-1.263-0.625-2.617-0.938-4.06-0.938c-2.721,0-5.014,0.994-6.881,2.982c-1.866,1.989-2.801,4.398-2.801,7.229
	c0,1.857,0.423,3.562,1.27,5.116c0.846,1.553,2.01,2.781,3.493,3.683c1.482,0.902,3.122,1.353,4.919,1.353
	c1.495,0,2.891-0.326,4.186-0.978c1.294-0.651,2.377-1.544,3.25-2.676l3.278,2.627c-1.223,1.607-2.765,2.864-4.625,3.772
	c-1.861,0.909-3.891,1.363-6.089,1.363c-2.551,0-4.894-0.635-7.026-1.906c-2.134-1.271-3.816-2.999-5.046-5.185
	C272.839,47.528,272.225,45.138,272.225,42.544z"/>
</svg>
