<?xml version="1.0" encoding="utf-8"?>
<!-- Generator: Adobe Illustrator 15.0.0, SVG Export Plug-In . SVG Version: 6.00 Build 0)  -->
<!DOCTYPE svg PUBLIC "-//W3C//DTD SVG 1.1//EN" "http://www.w3.org/Graphics/SVG/1.1/DTD/svg11.dtd">
<svg version="1.1" id="レイヤー_1" xmlns="http://www.w3.org/2000/svg" xmlns:xlink="http://www.w3.org/1999/xlink" x="0px"
	 y="0px" width="324.943px" height="132.592px" viewBox="0 0 324.943 132.592" enable-background="new 0 0 324.943 132.592"
	 xml:space="preserve">
<polygon fill="#040000" points="307.677,56.614 307.677,29.081 324.066,29.081 324.066,33.002 311.86,33.002 311.86,41.14 
	322.524,41.14 322.524,45.023 311.86,45.023 311.86,52.731 324.472,52.731 324.472,56.614 "/>
<polygon fill="none" stroke="#040000" stroke-width="0.943" stroke-miterlimit="10" points="307.677,56.614 307.677,29.081 
	324.066,29.081 324.066,33.002 311.86,33.002 311.86,41.14 322.524,41.14 322.524,45.023 311.86,45.023 311.86,52.731 
	324.472,52.731 324.472,56.614 "/>
<path fill="#040000" d="M122.48,56.814V29.28h10.331c2.291,0,4.108,0.655,5.452,1.966c1.343,1.31,2.015,3.088,2.015,5.331
	c0,1.223-0.268,2.34-0.802,3.349c-0.535,1.009-1.386,1.755-2.554,2.236c0.976,0.234,1.838,0.713,2.586,1.439
	c0.747,0.727,1.301,1.537,1.659,2.432c0.358,0.894,0.538,1.795,0.538,2.703c0,2.263-0.735,4.175-2.204,5.737
	c-1.468,1.561-3.429,2.341-5.883,2.341H122.48z M126.664,40.637h6.067c1.056,0,1.881-0.376,2.474-1.128
	c0.592-0.751,0.889-1.677,0.889-2.775c0-1.125-0.326-2.001-0.976-2.629c-0.651-0.628-1.543-0.942-2.676-0.942h-5.778V40.637z
	 M126.664,52.932h6.858c1.21,0,2.179-0.423,2.907-1.268c0.727-0.846,1.092-1.835,1.092-2.967c0-1.119-0.381-2.142-1.14-3.073
	c-0.76-0.93-1.752-1.395-2.975-1.395h-6.742V52.932z"/>
<path fill="none" stroke="#040000" stroke-width="0.943" stroke-miterlimit="10" d="M122.48,56.814V29.28h10.331
	c2.291,0,4.108,0.655,5.452,1.966c1.343,1.31,2.015,3.088,2.015,5.331c0,1.223-0.268,2.34-0.802,3.349
	c-0.535,1.009-1.386,1.755-2.554,2.236c0.976,0.234,1.838,0.713,2.586,1.439c0.747,0.727,1.301,1.537,1.659,2.432
	c0.358,0.894,0.538,1.795,0.538,2.703c0,2.263-0.735,4.175-2.204,5.737c-1.468,1.561-3.429,2.341-5.883,2.341H122.48z
	 M126.664,40.637h6.067c1.056,0,1.881-0.376,2.474-1.128c0.592-0.751,0.889-1.677,0.889-2.775c0-1.125-0.326-2.001-0.976-2.629
	c-0.651-0.628-1.543-0.942-2.676-0.942h-5.778V40.637z M126.664,52.932h6.858c1.21,0,2.179-0.423,2.907-1.268
	c0.727-0.846,1.092-1.835,1.092-2.967c0-1.119-0.381-2.142-1.14-3.073c-0.76-0.93-1.752-1.395-2.975-1.395h-6.742V52.932z"/>
<path fill="#040000" d="M150.883,56.814L161.16,29.28h4.532l10.278,27.534h-4.436l-2.603-6.927H157.96l-2.603,6.927H150.883z
	 M159.387,46.141h8.118l-4.049-11.552L159.387,46.141z"/>
<path fill="none" stroke="#040000" stroke-width="0.943" stroke-miterlimit="10" d="M150.883,56.814L161.16,29.28h4.532
	l10.278,27.534h-4.436l-2.603-6.927H157.96l-2.603,6.927H150.883z M159.387,46.141h8.118l-4.049-11.552L159.387,46.141z"/>
<polygon fill="#040000" points="185.649,56.709 185.649,29.175 189.834,29.175 189.834,52.826 200.747,52.826 200.747,56.709 "/>
<polygon fill="none" stroke="#040000" stroke-width="0.943" stroke-miterlimit="10" points="185.649,56.709 185.649,29.175 
	189.834,29.175 189.834,52.826 200.747,52.826 200.747,56.709 "/>
<path fill="#040000" d="M208.503,56.64l10.278-27.534h4.531L233.59,56.64h-4.435l-2.603-6.927H215.58l-2.603,6.927H208.503z
	 M217.007,45.966h8.118l-4.05-11.552L217.007,45.966z"/>
<path fill="none" stroke="#040000" stroke-width="0.943" stroke-miterlimit="10" d="M208.503,56.64l10.278-27.534h4.531
	L233.59,56.64h-4.435l-2.603-6.927H215.58l-2.603,6.927H208.503z M217.007,45.966h8.118l-4.05-11.552L217.007,45.966z"/>
<polygon fill="#040000" points="242.752,56.455 242.752,28.921 246.782,28.921 258.353,48.454 258.353,28.921 262.536,28.921 
	262.536,56.455 258.641,56.455 246.937,36.746 246.937,56.455 "/>
<polygon fill="none" stroke="#040000" stroke-width="0.943" stroke-miterlimit="10" points="242.752,56.455 242.752,28.921 
	246.782,28.921 258.353,48.454 258.353,28.921 262.536,28.921 262.536,56.455 258.641,56.455 246.937,36.746 246.937,56.455 "/>
<path fill="#040000" d="M122.224,106.147V78.613h10.586c1.89,0,3.612,0.355,5.168,1.066c1.555,0.711,2.844,1.688,3.866,2.935
	c1.022,1.245,1.812,2.712,2.372,4.4c0.559,1.688,0.838,3.511,0.838,5.464c0,1.952-0.279,3.76-0.838,5.42
	c-0.56,1.66-1.353,3.103-2.382,4.329c-1.028,1.224-2.317,2.185-3.865,2.879c-1.55,0.694-3.269,1.041-5.159,1.041H122.224z
	 M126.408,102.265h6.402c1.723,0,3.201-0.439,4.435-1.319c1.235-0.879,2.146-2.044,2.738-3.496c0.591-1.453,0.887-3.109,0.887-4.971
	c0-1.862-0.296-3.53-0.887-5.002c-0.592-1.471-1.503-2.652-2.738-3.545c-1.234-0.893-2.712-1.338-4.435-1.338h-6.402V102.265z"/>
<path fill="none" stroke="#040000" stroke-width="0.943" stroke-miterlimit="10" d="M122.224,106.147V78.613h10.586
	c1.89,0,3.612,0.355,5.168,1.066c1.555,0.711,2.844,1.688,3.866,2.935c1.022,1.245,1.812,2.712,2.372,4.4
	c0.559,1.688,0.838,3.511,0.838,5.464c0,1.952-0.279,3.76-0.838,5.42c-0.56,1.66-1.353,3.103-2.382,4.329
	c-1.028,1.224-2.317,2.185-3.865,2.879c-1.55,0.694-3.269,1.041-5.159,1.041H122.224z M126.408,102.265h6.402
	c1.723,0,3.201-0.439,4.435-1.319c1.235-0.879,2.146-2.044,2.738-3.496c0.591-1.453,0.887-3.109,0.887-4.971
	c0-1.862-0.296-3.53-0.887-5.002c-0.592-1.471-1.503-2.652-2.738-3.545c-1.234-0.893-2.712-1.338-4.435-1.338h-6.402V102.265z"/>
<polygon fill="#040000" points="155.396,105.81 155.396,78.275 171.786,78.275 171.786,82.197 159.58,82.197 159.58,90.334 
	170.244,90.334 170.244,94.218 159.58,94.218 159.58,101.926 172.191,101.926 172.191,105.81 "/>
<polygon fill="none" stroke="#040000" stroke-width="0.943" stroke-miterlimit="10" points="155.396,105.81 155.396,78.275 
	171.786,78.275 171.786,82.197 159.58,82.197 159.58,90.334 170.244,90.334 170.244,94.218 159.58,94.218 159.58,101.926 
	172.191,101.926 172.191,105.81 "/>
<path fill="#040000" d="M182.09,97.503h4.185c0.038,1.18,0.562,2.225,1.571,3.138c1.009,0.914,2.292,1.37,3.847,1.37
	c1.517,0,2.715-0.357,3.596-1.072s1.392-1.61,1.533-2.689c0.141-2.262-1.292-3.748-4.297-4.462l-3.432-0.918
	c-4.502-1.228-6.752-3.679-6.752-7.352c0-1.535,0.415-2.906,1.244-4.116c0.829-1.208,1.925-2.136,3.288-2.778
	c1.362-0.644,2.84-0.966,4.436-0.966c2.557,0,4.669,0.739,6.333,2.215c1.665,1.478,2.498,3.45,2.498,5.923h-4.186
	c0-1.249-0.439-2.255-1.32-3.016s-2.022-1.141-3.423-1.141c-1.286,0-2.388,0.348-3.308,1.046c-0.919,0.696-1.378,1.583-1.378,2.66
	c0,1.723,1.223,2.889,3.67,3.498l3.468,0.925c2.688,0.737,4.642,1.853,5.863,3.345c1.221,1.494,1.715,3.268,1.484,5.32
	c-0.193,2.198-1.142,3.991-2.845,5.379c-1.703,1.39-3.86,2.082-6.473,2.082c-1.826,0-3.481-0.39-4.965-1.17
	c-1.485-0.781-2.629-1.809-3.433-3.083C182.492,100.364,182.09,98.984,182.09,97.503"/>
<path fill="none" stroke="#040000" stroke-width="0.943" stroke-miterlimit="10" d="M182.09,97.503h4.185
	c0.038,1.18,0.562,2.225,1.571,3.138c1.009,0.914,2.292,1.37,3.847,1.37c1.517,0,2.715-0.357,3.596-1.072s1.392-1.61,1.533-2.689
	c0.141-2.262-1.292-3.748-4.297-4.462l-3.432-0.918c-4.502-1.228-6.752-3.679-6.752-7.352c0-1.535,0.415-2.906,1.244-4.116
	c0.829-1.208,1.925-2.136,3.288-2.778c1.362-0.644,2.84-0.966,4.436-0.966c2.557,0,4.669,0.739,6.333,2.215
	c1.665,1.478,2.498,3.45,2.498,5.923h-4.186c0-1.249-0.439-2.255-1.32-3.016s-2.022-1.141-3.423-1.141
	c-1.286,0-2.388,0.348-3.308,1.046c-0.919,0.696-1.378,1.583-1.378,2.66c0,1.723,1.223,2.889,3.67,3.498l3.468,0.925
	c2.688,0.737,4.642,1.853,5.863,3.345c1.221,1.494,1.715,3.268,1.484,5.32c-0.193,2.198-1.142,3.991-2.845,5.379
	c-1.703,1.39-3.86,2.082-6.473,2.082c-1.826,0-3.481-0.39-4.965-1.17c-1.485-0.781-2.629-1.809-3.433-3.083
	C182.492,100.364,182.09,98.984,182.09,97.503z"/>
<rect x="212.046" y="78.362" fill="#040000" width="4.186" height="27.534"/>
<rect x="212.046" y="78.362" fill="none" stroke="#040000" stroke-width="0.943" stroke-miterlimit="10" width="4.186" height="27.534"/>
<path fill="#040000" d="M225.847,91.807c0-2.576,0.606-4.946,1.821-7.113c1.215-2.166,2.879-3.88,4.994-5.143
	c2.115-1.262,4.438-1.894,6.972-1.894c1.852,0,3.593,0.341,5.225,1.025c1.633,0.682,3.054,1.643,4.262,2.877l-3.085,2.761
	c-1.813-1.736-3.946-2.604-6.401-2.604c-1.774,0-3.397,0.452-4.869,1.359c-1.473,0.907-2.63,2.132-3.472,3.673
	c-0.842,1.543-1.263,3.232-1.263,5.068c0,1.837,0.421,3.528,1.263,5.073c0.842,1.544,1.999,2.768,3.472,3.67
	c1.472,0.902,3.095,1.352,4.869,1.352c2.248,0,4.151-0.619,5.706-1.856c1.557-1.238,2.379-2.863,2.469-4.875h-7.616v-3.668h12.437
	c0,2.42-0.311,4.55-0.934,6.391c-0.624,1.84-1.512,3.34-2.662,4.498c-1.15,1.157-2.513,2.028-4.088,2.615
	c-1.574,0.585-3.345,0.877-5.312,0.877c-1.903,0-3.706-0.371-5.409-1.111c-1.704-0.743-3.166-1.744-4.388-3.005
	c-1.221-1.262-2.19-2.762-2.911-4.498C226.206,95.542,225.847,93.719,225.847,91.807"/>
<path fill="none" stroke="#040000" stroke-width="0.943" stroke-miterlimit="10" d="M225.847,91.807
	c0-2.576,0.606-4.946,1.821-7.113c1.215-2.166,2.879-3.88,4.994-5.143c2.115-1.262,4.438-1.894,6.972-1.894
	c1.852,0,3.593,0.341,5.225,1.025c1.633,0.682,3.054,1.643,4.262,2.877l-3.085,2.761c-1.813-1.736-3.946-2.604-6.401-2.604
	c-1.774,0-3.397,0.452-4.869,1.359c-1.473,0.907-2.63,2.132-3.472,3.673c-0.842,1.543-1.263,3.232-1.263,5.068
	c0,1.837,0.421,3.528,1.263,5.073c0.842,1.544,1.999,2.768,3.472,3.67c1.472,0.902,3.095,1.352,4.869,1.352
	c2.248,0,4.151-0.619,5.706-1.856c1.557-1.238,2.379-2.863,2.469-4.875h-7.616v-3.668h12.437c0,2.42-0.311,4.55-0.934,6.391
	c-0.624,1.84-1.512,3.34-2.662,4.498c-1.15,1.157-2.513,2.028-4.088,2.615c-1.574,0.585-3.345,0.877-5.312,0.877
	c-1.903,0-3.706-0.371-5.409-1.111c-1.704-0.743-3.166-1.744-4.388-3.005c-1.221-1.262-2.19-2.762-2.911-4.498
	C226.206,95.542,225.847,93.719,225.847,91.807z"/>
<polygon fill="#040000" points="262.779,105.722 262.779,78.188 266.81,78.188 278.379,97.721 278.379,78.188 282.563,78.188 
	282.563,105.722 278.667,105.722 266.963,86.013 266.963,105.722 "/>
<polygon fill="none" stroke="#040000" stroke-width="0.943" stroke-miterlimit="10" points="262.779,105.722 262.779,78.188 
	266.81,78.188 278.379,97.721 278.379,78.188 282.563,78.188 282.563,105.722 278.667,105.722 266.963,86.013 266.963,105.722 "/>
<path fill="#040000" d="M75.123,46.209c0,15.773-12.786,28.559-28.559,28.559s-28.56-12.786-28.56-28.559S30.791,17.65,46.563,17.65
	V0C21.042,0,0.354,20.688,0.354,46.209s20.688,46.209,46.209,46.209c25.52,0,46.209-20.688,46.209-46.209H75.123z"/>
<rect y="114.576" fill="#040000" width="92.793" height="18.016"/>
<path fill="#040000" d="M272.225,42.544c0-2.607,0.614-5.007,1.844-7.199c1.23-2.193,2.911-3.927,5.046-5.204
	c2.133-1.278,4.476-1.916,7.026-1.916c2.159,0,4.163,0.441,6.01,1.323c1.849,0.882,3.391,2.107,4.626,3.674l-3.279,2.607
	c-0.937-1.08-2.036-1.932-3.298-2.558c-1.262-0.625-2.614-0.938-4.059-0.938c-2.72,0-5.014,0.995-6.881,2.982
	c-1.867,1.989-2.8,4.398-2.8,7.229c0,1.857,0.423,3.563,1.269,5.116c0.845,1.553,2.01,2.781,3.493,3.683
	c1.484,0.902,3.123,1.353,4.919,1.353c1.496,0,2.891-0.326,4.186-0.977c1.294-0.652,2.377-1.544,3.25-2.676l3.278,2.626
	c-1.223,1.607-2.765,2.864-4.625,3.772c-1.861,0.909-3.891,1.363-6.089,1.363c-2.551,0-4.894-0.635-7.026-1.906
	c-2.135-1.271-3.815-2.998-5.046-5.184C272.839,47.528,272.225,45.139,272.225,42.544"/>
<path fill="none" stroke="#040000" stroke-width="0.955" stroke-miterlimit="10" d="M272.225,42.544
	c0-2.607,0.614-5.007,1.844-7.199c1.23-2.193,2.911-3.927,5.046-5.204c2.133-1.278,4.476-1.916,7.026-1.916
	c2.159,0,4.163,0.441,6.01,1.323c1.849,0.882,3.391,2.107,4.626,3.674l-3.279,2.607c-0.937-1.08-2.036-1.932-3.298-2.558
	c-1.262-0.625-2.614-0.938-4.059-0.938c-2.72,0-5.014,0.995-6.881,2.982c-1.867,1.989-2.8,4.398-2.8,7.229
	c0,1.857,0.423,3.563,1.269,5.116c0.845,1.553,2.01,2.781,3.493,3.683c1.484,0.902,3.123,1.353,4.919,1.353
	c1.496,0,2.891-0.326,4.186-0.977c1.294-0.652,2.377-1.544,3.25-2.676l3.278,2.626c-1.223,1.607-2.765,2.864-4.625,3.772
	c-1.861,0.909-3.891,1.363-6.089,1.363c-2.551,0-4.894-0.635-7.026-1.906c-2.135-1.271-3.815-2.998-5.046-5.184
	C272.839,47.528,272.225,45.139,272.225,42.544z"/>
</svg>
